Griffith_Gothic-Bold.ufo
<glyph name="quotedbl" format="1">
  <advance width="386"/>
  <unicode hex="0022"/>
  <outline>
    <contour>
      <point x="339" y="720" type="line"/>
      <point x="311" y="473" type="line"/>
      <point x="253" y="473" type="line"/>
      <point x="225" y="720" type="line"/>
    </contour>
    <contour>
      <point x="161" y="720" type="line"/>
      <point x="133" y="473" type="line"/>
      <point x="75" y="473" type="line"/>
      <point x="47" y="720" type="line"/>
    </contour>
  </outline>
</glyph>
<glyph name="numbersign" format="1">
  <advance width="629"/>
  <unicode hex="0023"/>
  <outline>
    <contour>
      <point x="601" y="453" type="line"/>
      <point x="478" y="453" type="line"/>
      <point x="447" y="267" type="line"/>
      <point x="567" y="267" type="line"/>
      <point x="567" y="180" type="line"/>
      <point x="432" y="180" type="line"/>
      <point x="402" y="0" type="line"/>
      <point x="341" y="0" type="line"/>
      <point x="371" y="180" type="line"/>
      <point x="196" y="180" type="line"/>
      <point x="166" y="0" type="line"/>
      <point x="106" y="0" type="line"/>
      <point x="136" y="180" type="line"/>
      <point x="28" y="180" type="line"/>
      <point x="28" y="267" type="line"/>
      <point x="151" y="267" type="line"/>
      <point x="182" y="453" type="line"/>
      <point x="62" y="453" type="line"/>
      <point x="62" y="540" type="line"/>
      <point x="197" y="540" type="line"/>
      <point x="227" y="720" type="line"/>
      <point x="287" y="720" type="line"/>
      <point x="258" y="540" type="line"/>
      <point x="432" y="540" type="line"/>
      <point x="462" y="720" type="line"/>
      <point x="523" y="720" type="line"/>
      <point x="492" y="540" type="line"/>
      <point x="601" y="540" type="line"/>
    </contour>
    <contour>
      <point x="419" y="455" type="line"/>
      <point x="242" y="455" type="line"/>
      <point x="210" y="265" type="line"/>
      <point x="387" y="265" type="line"/>
    </contour>
  </outline>
</glyph>
<glyph name="dollar" format="1">
  <advance width="567"/>
  <unicode hex="0024"/>
  <outline>
    <contour>
      <point x="535" y="195" type="curve" smooth="yes"/>
      <point x="535" y="79"/>
      <point x="443" y="9"/>
      <point x="316" y="0" type="curve"/>
      <point x="316" y="-95" type="line"/>
      <point x="252" y="-95" type="line"/>
      <point x="252" y="1" type="line"/>
      <point x="159" y="8"/>
      <point x="84" y="43"/>
      <point x="26" y="102" type="curve"/>
      <point x="84" y="169" type="line"/>
      <point x="135" y="118"/>
      <point x="189" y="86"/>
      <point x="258" y="79" type="curve"/>
      <point x="258" y="333" type="line"/>
      <point x="112" y="377"/>
      <point x="48" y="430"/>
      <point x="48" y="537" type="curve" smooth="yes"/>
      <point x="48" y="643"/>
      <point x="132" y="713"/>
      <point x="252" y="720" type="curve"/>
      <point x="252" y="762" type="line"/>
      <point x="316" y="762" type="line"/>
      <point x="316" y="719" type="line"/>
      <point x="396" y="713"/>
      <point x="453" y="685"/>
      <point x="510" y="633" type="curve"/>
      <point x="452" y="566" type="line"/>
      <point x="408" y="608"/>
      <point x="366" y="633"/>
      <point x="311" y="641" type="curve"/>
      <point x="311" y="408" type="line"/>
      <point x="478" y="356"/>
      <point x="535" y="304"/>
    </contour>
    <contour>
      <point x="258" y="424" type="curve"/>
      <point x="258" y="643" type="line"/>
      <point x="183" y="639"/>
      <point x="144" y="601"/>
      <point x="144" y="542" type="curve" smooth="yes"/>
      <point x="144" y="487"/>
      <point x="179" y="453"/>
    </contour>
    <contour>
      <point x="439" y="190" type="curve" smooth="yes"/>
      <point x="439" y="249"/>
      <point x="410" y="282"/>
      <point x="311" y="318" type="curve"/>
      <point x="311" y="76" type="line"/>
      <point x="391" y="82"/>
      <point x="439" y="122"/>
    </contour>
  </outline>
</glyph>
<glyph name="ampersand" format="1">
  <advance width="693"/>
  <unicode hex="0026"/>
  <outline>
    <contour>
      <point x="690" y="2" type="line"/>
      <point x="667" y="-3"/>
      <point x="651" y="-6"/>
      <point x="625" y="-6" type="curve" smooth="yes"/>
      <point x="562" y="-6"/>
      <point x="519" y="10"/>
      <point x="459" y="70" type="curve"/>
      <point x="400" y="18"/>
      <point x="333" y="-10"/>
      <point x="259" y="-10" type="curve" smooth="yes"/>
      <point x="119" y="-10"/>
      <point x="27" y="70"/>
      <point x="27" y="195" type="curve" smooth="yes"/>
      <point x="27" y="284"/>
      <point x="68" y="350"/>
      <point x="193" y="415" type="curve"/>
      <point x="155" y="474"/>
      <point x="134" y="524"/>
      <point x="134" y="576" type="curve" smooth="yes"/>
      <point x="134" y="668"/>
      <point x="202" y="732"/>
      <point x="305" y="732" type="curve" smooth="yes"/>
      <point x="404" y="732"/>
      <point x="458" y="664"/>
      <point x="458" y="584" type="curve" smooth="yes"/>
      <point x="458" y="508"/>
      <point x="406" y="452"/>
      <point x="316" y="403" type="curve"/>
      <point x="379" y="311"/>
      <point x="429" y="245"/>
      <point x="469" y="197" type="curve"/>
      <point x="509" y="253"/>
      <point x="543" y="325"/>
      <point x="569" y="406" type="curve"/>
      <point x="651" y="370" type="line"/>
      <point x="617" y="277"/>
      <point x="573" y="197"/>
      <point x="524" y="135" type="curve"/>
      <point x="570" y="85"/>
      <point x="599" y="73"/>
      <point x="631" y="73" type="curve" smooth="yes"/>
      <point x="657" y="73"/>
      <point x="671" y="76"/>
      <point x="690" y="82" type="curve"/>
    </contour>
    <contour>
      <point x="370" y="582" type="curve" smooth="yes"/>
      <point x="370" y="631"/>
      <point x="347" y="667"/>
      <point x="302" y="667" type="curve" smooth="yes"/>
      <point x="250" y="667"/>
      <point x="225" y="629"/>
      <point x="225" y="582" type="curve" smooth="yes"/>
      <point x="225" y="542"/>
      <point x="240" y="502"/>
      <point x="273" y="454" type="curve"/>
      <point x="342" y="494"/>
      <point x="370" y="535"/>
    </contour>
    <contour>
      <point x="405" y="127" type="curve"/>
      <point x="360" y="182"/>
      <point x="302" y="256"/>
      <point x="233" y="357" type="curve"/>
      <point x="160" y="314"/>
      <point x="132" y="267"/>
      <point x="132" y="209" type="curve" smooth="yes"/>
      <point x="132" y="129"/>
      <point x="189" y="68"/>
      <point x="272" y="68" type="curve" smooth="yes"/>
      <point x="321" y="68"/>
      <point x="366" y="90"/>
    </contour>
  </outline>
</glyph>
<glyph name="quotesingle" format="1">
  <advance width="210"/>
  <unicode hex="0027"/>
  <outline>
    <contour>
      <point x="163" y="720" type="line"/>
      <point x="135" y="473" type="line"/>
      <point x="75" y="473" type="line"/>
      <point x="47" y="720" type="line"/>
    </contour>
  </outline>
</glyph>
<glyph name="asterisk" format="1">
  <advance width="440"/>
  <unicode hex="002A"/>
  <outline>
    <contour>
      <point x="407" y="554" type="line"/>
      <point x="252" y="533" type="line"/>
      <point x="369" y="426" type="line"/>
      <point x="291" y="369" type="line"/>
      <point x="220" y="515" type="line"/>
      <point x="150" y="369" type="line"/>
      <point x="72" y="426" type="line"/>
      <point x="188" y="533" type="line"/>
      <point x="33" y="554" type="line"/>
      <point x="63" y="645" type="line"/>
      <point x="202" y="566" type="line"/>
      <point x="172" y="720" type="line"/>
      <point x="268" y="720" type="line"/>
      <point x="238" y="566" type="line"/>
      <point x="377" y="645" type="line"/>
    </contour>
  </outline>
</glyph>
<glyph name="hyphen" format="1">
  <advance width="333"/>
  <unicode hex="002D"/>
  <unicode hex="2010"/>
  <unicode hex="2011"/>
  <outline>
    <contour>
      <point x="292" y="237" type="line"/>
      <point x="41" y="237" type="line"/>
      <point x="41" y="332" type="line"/>
      <point x="292" y="332" type="line"/>
    </contour>
  </outline>
</glyph>
<glyph name="zero" format="1">
  <advance width="608"/>
  <unicode hex="0030"/>
  <outline>
    <contour>
      <point x="563" y="341" type="line" smooth="yes"/>
      <point x="563" y="120"/>
      <point x="463" y="-12"/>
      <point x="304" y="-12" type="curve" smooth="yes"/>
      <point x="145" y="-12"/>
      <point x="45" y="119"/>
      <point x="45" y="340" type="curve" smooth="yes"/>
      <point x="45" y="379" type="line" smooth="yes"/>
      <point x="45" y="600"/>
      <point x="145" y="732"/>
      <point x="304" y="732" type="curve" smooth="yes"/>
      <point x="463" y="732"/>
      <point x="563" y="601"/>
      <point x="563" y="380" type="curve" smooth="yes"/>
    </contour>
    <contour>
      <point x="447" y="328" type="curve" smooth="yes"/>
      <point x="447" y="390" type="line" smooth="yes"/>
      <point x="447" y="539"/>
      <point x="401" y="644"/>
      <point x="304" y="644" type="curve" smooth="yes"/>
      <point x="207" y="644"/>
      <point x="161" y="541"/>
      <point x="161" y="392" type="curve" smooth="yes"/>
      <point x="161" y="330" type="line" smooth="yes"/>
      <point x="161" y="180"/>
      <point x="207" y="76"/>
      <point x="304" y="76" type="curve" smooth="yes"/>
      <point x="401" y="76"/>
      <point x="447" y="179"/>
    </contour>
  </outline>
</glyph>
<glyph name="one" format="1">
  <advance width="448"/>
  <unicode hex="0031"/>
  <outline>
    <contour>
      <point x="427" y="0" type="line"/>
      <point x="46" y="0" type="line"/>
      <point x="46" y="72" type="line"/>
      <point x="183" y="72" type="line"/>
      <point x="183" y="648" type="line"/>
      <point x="34" y="648" type="line"/>
      <point x="34" y="720" type="line"/>
      <point x="294" y="720" type="line"/>
      <point x="294" y="72" type="line"/>
      <point x="427" y="72" type="line"/>
    </contour>
  </outline>
</glyph>
<glyph name="two" format="1">
  <advance width="560"/>
  <unicode hex="0032"/>
  <outline>
    <contour>
      <point x="513" y="0" type="line"/>
      <point x="49" y="0" type="line"/>
      <point x="49" y="70" type="line"/>
      <point x="85" y="176"/>
      <point x="149" y="249"/>
      <point x="269" y="341" type="curve" smooth="yes"/>
      <point x="354" y="405"/>
      <point x="396" y="451"/>
      <point x="396" y="525" type="curve" smooth="yes"/>
      <point x="396" y="597"/>
      <point x="356" y="648"/>
      <point x="280" y="648" type="curve" smooth="yes"/>
      <point x="214" y="648"/>
      <point x="171" y="610"/>
      <point x="126" y="517" type="curve"/>
      <point x="41" y="557" type="line"/>
      <point x="93" y="670"/>
      <point x="166" y="732"/>
      <point x="285" y="732" type="curve" smooth="yes"/>
      <point x="434" y="732"/>
      <point x="504" y="644"/>
      <point x="504" y="528" type="curve" smooth="yes"/>
      <point x="504" y="415"/>
      <point x="448" y="359"/>
      <point x="336" y="279" type="curve" smooth="yes"/>
      <point x="238" y="208"/>
      <point x="186" y="154"/>
      <point x="163" y="83" type="curve"/>
      <point x="513" y="83" type="line"/>
    </contour>
  </outline>
</glyph>
<glyph name="three" format="1">
  <advance width="533"/>
  <unicode hex="0033"/>
  <outline>
    <contour>
      <point x="500" y="251" type="curve" smooth="yes"/>
      <point x="500" y="86"/>
      <point x="306" y="-8"/>
      <point x="21" y="-6" type="curve"/>
      <point x="21" y="75" type="line"/>
      <point x="253" y="77"/>
      <point x="388" y="143"/>
      <point x="388" y="250" type="curve" smooth="yes"/>
      <point x="388" y="317"/>
      <point x="345" y="348"/>
      <point x="279" y="348" type="curve" smooth="yes"/>
      <point x="239" y="348"/>
      <point x="211" y="342"/>
      <point x="178" y="331" type="curve"/>
      <point x="152" y="400" type="line"/>
      <point x="298" y="456"/>
      <point x="352" y="493"/>
      <point x="352" y="564" type="curve" smooth="yes"/>
      <point x="352" y="616"/>
      <point x="318" y="650"/>
      <point x="259" y="650" type="curve" smooth="yes"/>
      <point x="205" y="650"/>
      <point x="154" y="621"/>
      <point x="97" y="562" type="curve"/>
      <point x="38" y="619" type="line"/>
      <point x="104" y="688"/>
      <point x="176" y="732"/>
      <point x="273" y="732" type="curve" smooth="yes"/>
      <point x="394" y="732"/>
      <point x="460" y="670"/>
      <point x="460" y="582" type="curve" smooth="yes"/>
      <point x="460" y="499"/>
      <point x="400" y="448"/>
      <point x="302" y="407" type="curve"/>
      <point x="303" y="403" type="line"/>
      <point x="416" y="413"/>
      <point x="500" y="363"/>
    </contour>
  </outline>
</glyph>
<glyph name="semicolon" format="1">
  <advance width="226"/>
  <unicode hex="003B"/>
  <outline>
    <contour>
      <point x="183" y="462" type="curve" smooth="yes"/>
      <point x="183" y="423"/>
      <point x="154" y="394"/>
      <point x="115" y="394" type="curve" smooth="yes"/>
      <point x="76" y="394"/>
      <point x="48" y="423"/>
      <point x="48" y="462" type="curve" smooth="yes"/>
      <point x="48" y="501"/>
      <point x="76" y="530"/>
      <point x="115" y="530" type="curve" smooth="yes"/>
      <point x="154" y="530"/>
      <point x="183" y="501"/>
    </contour>
    <contour>
      <point x="177" y="130" type="line"/>
      <point x="91" y="-117" type="line"/>
      <point x="29" y="-117" type="line"/>
      <point x="59" y="130" type="line"/>
    </contour>
  </outline>
</glyph>
<glyph name="less" format="1">
  <advance width="600"/>
  <unicode hex="003C"/>
  <outline>
    <contour>
      <point x="548" y="89" type="line"/>
      <point x="45" y="310" type="line"/>
      <point x="45" y="400" type="line"/>
      <point x="548" y="621" type="line"/>
      <point x="548" y="524" type="line"/>
      <point x="149" y="355" type="line"/>
      <point x="548" y="186" type="line"/>
    </contour>
  </outline>
</glyph>
<glyph name="at" format="1">
  <advance width="998"/>
  <unicode hex="0040"/>
  <outline>
    <contour>
      <point x="943" y="333" type="curve" smooth="yes"/>
      <point x="943" y="149"/>
      <point x="830" y="28"/>
      <point x="705" y="28" type="curve" smooth="yes"/>
      <point x="624" y="28"/>
      <point x="583" y="76"/>
      <point x="575" y="147" type="curve"/>
      <point x="570" y="147" type="line"/>
      <point x="526" y="73"/>
      <point x="467" y="28"/>
      <point x="405" y="28" type="curve" smooth="yes"/>
      <point x="327" y="28"/>
      <point x="278" y="90"/>
      <point x="278" y="196" type="curve" smooth="yes"/>
      <point x="278" y="351"/>
      <point x="353" y="516"/>
      <point x="471" y="516" type="curve" smooth="yes"/>
      <point x="542" y="516"/>
      <point x="577" y="469"/>
      <point x="600" y="404" type="curve"/>
      <point x="604" y="403" type="line"/>
      <point x="623" y="515" type="line"/>
      <point x="718" y="495" type="line"/>
      <point x="663" y="187" type="line" smooth="yes"/>
      <point x="651" y="121"/>
      <point x="672" y="70"/>
      <point x="734" y="70" type="curve" smooth="yes"/>
      <point x="820" y="70"/>
      <point x="902" y="181"/>
      <point x="902" y="331" type="curve" smooth="yes"/>
      <point x="902" y="556"/>
      <point x="743" y="697"/>
      <point x="516" y="697" type="curve" smooth="yes"/>
      <point x="280" y="697"/>
      <point x="97" y="506"/>
      <point x="97" y="266" type="curve" smooth="yes"/>
      <point x="97" y="13"/>
      <point x="260" y="-157"/>
      <point x="507" y="-157" type="curve" smooth="yes"/>
      <point x="628" y="-157"/>
      <point x="713" y="-133"/>
      <point x="802" y="-84" type="curve"/>
      <point x="820" y="-114" type="line"/>
      <point x="727" y="-164"/>
      <point x="635" y="-192"/>
      <point x="505" y="-192" type="curve" smooth="yes"/>
      <point x="235" y="-192"/>
      <point x="55" y="-10"/>
      <point x="55" y="265" type="curve" smooth="yes"/>
      <point x="55" y="529"/>
      <point x="265" y="732"/>
      <point x="519" y="732" type="curve" smooth="yes"/>
      <point x="758" y="732"/>
      <point x="943" y="574"/>
    </contour>
    <contour>
      <point x="588" y="325" type="curve" smooth="yes"/>
      <point x="588" y="388"/>
      <point x="556" y="447"/>
      <point x="503" y="447" type="curve" smooth="yes"/>
      <point x="432" y="447"/>
      <point x="376" y="336"/>
      <point x="376" y="200" type="curve" smooth="yes"/>
      <point x="376" y="133"/>
      <point x="402" y="90"/>
      <point x="450" y="90" type="curve" smooth="yes"/>
      <point x="520" y="90"/>
      <point x="588" y="212"/>
    </contour>
  </outline>
</glyph>
<glyph name="B" format="1">
  <advance width="617"/>
  <unicode hex="0042"/>
  <outline>
    <contour>
      <point x="583" y="200" type="curve" smooth="yes"/>
      <point x="583" y="71"/>
      <point x="479" y="0"/>
      <point x="328" y="0" type="curve" smooth="yes"/>
      <point x="72" y="0" type="line"/>
      <point x="72" y="720" type="line"/>
      <point x="332" y="720" type="line" smooth="yes"/>
      <point x="471" y="720"/>
      <point x="557" y="656"/>
      <point x="557" y="545" type="curve" smooth="yes"/>
      <point x="557" y="452"/>
      <point x="494" y="408"/>
      <point x="429" y="388" type="curve"/>
      <point x="429" y="384" type="line"/>
      <point x="522" y="360"/>
      <point x="583" y="307"/>
    </contour>
    <contour>
      <point x="446" y="532" type="curve" smooth="yes"/>
      <point x="446" y="601"/>
      <point x="398" y="637"/>
      <point x="316" y="637" type="curve" smooth="yes"/>
      <point x="181" y="637" type="line"/>
      <point x="181" y="420" type="line"/>
      <point x="312" y="420" type="line" smooth="yes"/>
      <point x="395" y="420"/>
      <point x="446" y="456"/>
    </contour>
    <contour>
      <point x="472" y="210" type="curve" smooth="yes"/>
      <point x="472" y="298"/>
      <point x="419" y="344"/>
      <point x="311" y="344" type="curve" smooth="yes"/>
      <point x="181" y="344" type="line"/>
      <point x="181" y="83" type="line"/>
      <point x="312" y="83" type="line" smooth="yes"/>
      <point x="408" y="83"/>
      <point x="472" y="121"/>
    </contour>
  </outline>
</glyph>
<glyph name="C" format="1">
  <advance width="594"/>
  <unicode hex="0043"/>
  <outline>
    <contour>
      <point x="562" y="214" type="line"/>
      <point x="533" y="76"/>
      <point x="455" y="-12"/>
      <point x="313" y="-12" type="curve" smooth="yes"/>
      <point x="150" y="-12"/>
      <point x="46" y="121"/>
      <point x="46" y="344" type="curve" smooth="yes"/>
      <point x="46" y="374" type="line" smooth="yes"/>
      <point x="46" y="598"/>
      <point x="149" y="732"/>
      <point x="315" y="732" type="curve" smooth="yes"/>
      <point x="459" y="732"/>
      <point x="532" y="644"/>
      <point x="558" y="514" type="curve"/>
      <point x="450" y="487" type="line"/>
      <point x="429" y="592"/>
      <point x="390" y="644"/>
      <point x="315" y="644" type="curve" smooth="yes"/>
      <point x="211" y="644"/>
      <point x="164" y="538"/>
      <point x="164" y="387" type="curve" smooth="yes"/>
      <point x="164" y="334" type="line" smooth="yes"/>
      <point x="164" y="183"/>
      <point x="211" y="76"/>
      <point x="316" y="76" type="curve" smooth="yes"/>
      <point x="395" y="76"/>
      <point x="436" y="135"/>
      <point x="457" y="240" type="curve"/>
    </contour>
  </outline>
</glyph>
<glyph name="D" format="1">
  <advance width="630"/>
  <unicode hex="0044"/>
  <outline>
    <contour>
      <point x="585" y="349" type="line" smooth="yes"/>
      <point x="585" y="125"/>
      <point x="469" y="0"/>
      <point x="277" y="0" type="curve" smooth="yes"/>
      <point x="72" y="0" type="line"/>
      <point x="72" y="720" type="line"/>
      <point x="280" y="720" type="line" smooth="yes"/>
      <point x="473" y="720"/>
      <point x="585" y="595"/>
      <point x="585" y="372" type="curve" smooth="yes"/>
    </contour>
    <contour>
      <point x="467" y="339" type="curve" smooth="yes"/>
      <point x="467" y="380" type="line" smooth="yes"/>
      <point x="467" y="546"/>
      <point x="401" y="632"/>
      <point x="273" y="632" type="curve" smooth="yes"/>
      <point x="184" y="632" type="line"/>
      <point x="184" y="88" type="line"/>
      <point x="276" y="88" type="line" smooth="yes"/>
      <point x="398" y="88"/>
      <point x="467" y="174"/>
    </contour>
  </outline>
</glyph>
<glyph name="E" format="1">
  <advance width="559"/>
  <unicode hex="0045"/>
  <outline>
    <contour>
      <point x="525" y="0" type="line"/>
      <point x="72" y="0" type="line"/>
      <point x="72" y="720" type="line"/>
      <point x="513" y="720" type="line"/>
      <point x="513" y="631" type="line"/>
      <point x="184" y="631" type="line"/>
      <point x="184" y="417" type="line"/>
      <point x="446" y="417" type="line"/>
      <point x="446" y="332" type="line"/>
      <point x="184" y="332" type="line"/>
      <point x="184" y="89" type="line"/>
      <point x="525" y="89" type="line"/>
    </contour>
  </outline>
</glyph>
<glyph name="F" format="1">
  <advance width="529"/>
  <unicode hex="0046"/>
  <outline>
    <contour>
      <point x="507" y="631" type="line"/>
      <point x="186" y="631" type="line"/>
      <point x="186" y="400" type="line"/>
      <point x="432" y="400" type="line"/>
      <point x="432" y="313" type="line"/>
      <point x="186" y="313" type="line"/>
      <point x="186" y="0" type="line"/>
      <point x="72" y="0" type="line"/>
      <point x="72" y="720" type="line"/>
      <point x="507" y="720" type="line"/>
    </contour>
  </outline>
</glyph>
<glyph name="G" format="1">
  <advance width="633"/>
  <unicode hex="0047"/>
  <outline>
    <contour>
      <point x="582" y="-1" type="line"/>
      <point x="532" y="-1" type="line"/>
      <point x="519" y="176" type="line"/>
      <point x="514" y="176" type="line"/>
      <point x="480" y="60"/>
      <point x="418" y="-12"/>
      <point x="305" y="-12" type="curve" smooth="yes"/>
      <point x="145" y="-12"/>
      <point x="46" y="121"/>
      <point x="46" y="344" type="curve" smooth="yes"/>
      <point x="46" y="374" type="line" smooth="yes"/>
      <point x="46" y="598"/>
      <point x="150" y="732"/>
      <point x="314" y="732" type="curve" smooth="yes"/>
      <point x="457" y="732"/>
      <point x="528" y="648"/>
      <point x="559" y="525" type="curve"/>
      <point x="451" y="496" type="line"/>
      <point x="429" y="591"/>
      <point x="388" y="644"/>
      <point x="314" y="644" type="curve" smooth="yes"/>
      <point x="213" y="644"/>
      <point x="164" y="542"/>
      <point x="164" y="387" type="curve" smooth="yes"/>
      <point x="164" y="334" type="line" smooth="yes"/>
      <point x="164" y="176"/>
      <point x="218" y="76"/>
      <point x="315" y="76" type="curve" smooth="yes"/>
      <point x="404" y="76"/>
      <point x="449" y="150"/>
      <point x="461" y="289" type="curve"/>
      <point x="321" y="289" type="line"/>
      <point x="321" y="341" type="line"/>
      <point x="582" y="341" type="line"/>
    </contour>
  </outline>
</glyph>
<glyph name="I" format="1">
  <advance width="411"/>
  <unicode hex="0049"/>
  <outline>
    <contour>
      <point x="363" y="0" type="line"/>
      <point x="48" y="0" type="line"/>
      <point x="48" y="49" type="line"/>
      <point x="148" y="49" type="line"/>
      <point x="148" y="671" type="line"/>
      <point x="48" y="671" type="line"/>
      <point x="48" y="720" type="line"/>
      <point x="363" y="720" type="line"/>
      <point x="363" y="671" type="line"/>
      <point x="263" y="671" type="line"/>
      <point x="263" y="49" type="line"/>
      <point x="363" y="49" type="line"/>
    </contour>
  </outline>
</glyph>
<glyph name="K" format="1">
  <advance width="620"/>
  <unicode hex="004B"/>
  <outline>
    <contour>
      <point x="622" y="0" type="line"/>
      <point x="493" y="0" type="line"/>
      <point x="212" y="388" type="line"/>
      <point x="212" y="390" type="line"/>
      <point x="478" y="720" type="line"/>
      <point x="605" y="720" type="line"/>
      <point x="333" y="393" type="line"/>
    </contour>
    <contour>
      <point x="186" y="0" type="line"/>
      <point x="72" y="0" type="line"/>
      <point x="72" y="720" type="line"/>
      <point x="186" y="720" type="line"/>
    </contour>
  </outline>
</glyph>
<glyph name="R" format="1">
  <advance width="609"/>
  <unicode hex="0052"/>
  <outline>
    <contour>
      <point x="583" y="0" type="line"/>
      <point x="458" y="0" type="line"/>
      <point x="278" y="305" type="line"/>
      <point x="186" y="305" type="line"/>
      <point x="186" y="0" type="line"/>
      <point x="72" y="0" type="line"/>
      <point x="72" y="720" type="line"/>
      <point x="312" y="720" type="line" smooth="yes"/>
      <point x="465" y="720"/>
      <point x="558" y="653"/>
      <point x="558" y="514" type="curve" smooth="yes"/>
      <point x="558" y="406"/>
      <point x="498" y="339"/>
      <point x="389" y="320" type="curve"/>
    </contour>
    <contour>
      <point x="444" y="512" type="curve" smooth="yes"/>
      <point x="444" y="596"/>
      <point x="394" y="637"/>
      <point x="298" y="637" type="curve" smooth="yes"/>
      <point x="182" y="637" type="line"/>
      <point x="182" y="384" type="line"/>
      <point x="301" y="384" type="line" smooth="yes"/>
      <point x="393" y="384"/>
      <point x="444" y="425"/>
    </contour>
  </outline>
</glyph>
<glyph name="U" format="1">
  <advance width="629"/>
  <unicode hex="0055"/>
  <outline>
    <contour>
      <point x="563" y="256" type="line" smooth="yes"/>
      <point x="563" y="67"/>
      <point x="460" y="-12"/>
      <point x="314" y="-12" type="curve" smooth="yes"/>
      <point x="167" y="-12"/>
      <point x="66" y="67"/>
      <point x="66" y="256" type="curve" smooth="yes"/>
      <point x="66" y="720" type="line"/>
      <point x="180" y="720" type="line"/>
      <point x="180" y="253" type="line" smooth="yes"/>
      <point x="180" y="129"/>
      <point x="235" y="79"/>
      <point x="318" y="79" type="curve" smooth="yes"/>
      <point x="401" y="79"/>
      <point x="455" y="127"/>
      <point x="455" y="251" type="curve" smooth="yes"/>
      <point x="455" y="720" type="line"/>
      <point x="563" y="720" type="line"/>
    </contour>
  </outline>
</glyph>
<glyph name="V" format="1">
  <advance width="638"/>
  <unicode hex="0056"/>
  <outline>
    <contour>
      <point x="616" y="720" type="line"/>
      <point x="383" y="-6" type="line"/>
      <point x="255" y="-6" type="line"/>
      <point x="22" y="720" type="line"/>
      <point x="141" y="720" type="line"/>
      <point x="318" y="115" type="line"/>
      <point x="323" y="115" type="line"/>
      <point x="501" y="720" type="line"/>
    </contour>
  </outline>
</glyph>
<glyph name="X" format="1">
  <advance width="638"/>
  <unicode hex="0058"/>
  <outline>
    <contour>
      <point x="616" y="0" type="line"/>
      <point x="487" y="0" type="line"/>
      <point x="314" y="280" type="line"/>
      <point x="137" y="0" type="line"/>
      <point x="23" y="0" type="line"/>
      <point x="259" y="365" type="line"/>
      <point x="37" y="720" type="line"/>
      <point x="165" y="720" type="line"/>
      <point x="325" y="462" type="line"/>
      <point x="487" y="720" type="line"/>
      <point x="601" y="720" type="line"/>
      <point x="379" y="377" type="line"/>
    </contour>
  </outline>
</glyph>
<glyph name="Z" format="1">
  <advance width="557"/>
  <unicode hex="005A"/>
  <outline>
    <contour>
      <point x="523" y="0" type="line"/>
      <point x="33" y="0" type="line"/>
      <point x="33" y="78" type="line"/>
      <point x="393" y="631" type="line"/>
      <point x="51" y="631" type="line"/>
      <point x="51" y="720" type="line"/>
      <point x="523" y="720" type="line"/>
      <point x="523" y="642" type="line"/>
      <point x="164" y="89" type="line"/>
      <point x="523" y="89" type="line"/>
    </contour>
  </outline>
</glyph>
<glyph name="bracketleft" format="1">
  <advance width="363"/>
  <unicode hex="005B"/>
  <outline>
    <contour>
      <point x="339" y="-80" type="line"/>
      <point x="64" y="-89" type="line"/>
      <point x="64" y="729" type="line"/>
      <point x="339" y="720" type="line"/>
      <point x="339" y="670" type="line"/>
      <point x="166" y="677" type="line"/>
      <point x="166" y="-37" type="line"/>
      <point x="339" y="-30" type="line"/>
    </contour>
  </outline>
</glyph>
<glyph name="backslash" format="1">
  <advance width="408"/>
  <unicode hex="005C"/>
  <outline>
    <contour>
      <point x="423" y="-95" type="line"/>
      <point x="319" y="-95" type="line"/>
      <point x="13" y="735" type="line"/>
      <point x="118" y="735" type="line"/>
    </contour>
  </outline>
</glyph>
<glyph name="asciicircum" format="1">
  <advance width="550"/>
  <unicode hex="005E"/>
  <outline>
    <contour>
      <point x="509" y="407" type="line"/>
      <point x="437" y="407" type="line"/>
      <point x="275" y="630" type="line"/>
      <point x="113" y="407" type="line"/>
      <point x="41" y="407" type="line"/>
      <point x="223" y="725" type="line"/>
      <point x="327" y="725" type="line"/>
    </contour>
  </outline>
</glyph>
<glyph name="grave" format="1">
  <advance width="500"/>
  <unicode hex="0060"/>
  <outline>
    <contour>
      <point x="344" y="592" type="line"/>
      <point x="273" y="592" type="line"/>
      <point x="130" y="743" type="line"/>
      <point x="259" y="743" type="line"/>
    </contour>
  </outline>
</glyph>
<glyph name="c" format="1">
  <advance width="467"/>
  <unicode hex="0063"/>
  <outline>
    <contour>
      <point x="442" y="138" type="line"/>
      <point x="413" y="41"/>
      <point x="348" y="-10"/>
      <point x="249" y="-10" type="curve" smooth="yes"/>
      <point x="119" y="-10"/>
      <point x="36" y="93"/>
      <point x="36" y="254" type="curve" smooth="yes"/>
      <point x="36" y="269" type="line" smooth="yes"/>
      <point x="36" y="428"/>
      <point x="120" y="534"/>
      <point x="253" y="534" type="curve" smooth="yes"/>
      <point x="354" y="534"/>
      <point x="413" y="483"/>
      <point x="439" y="386" type="curve"/>
      <point x="345" y="364" type="line"/>
      <point x="326" y="429"/>
      <point x="303" y="462"/>
      <point x="251" y="462" type="curve" smooth="yes"/>
      <point x="182" y="462"/>
      <point x="143" y="392"/>
      <point x="143" y="266" type="curve" smooth="yes"/>
      <point x="143" y="259" type="line" smooth="yes"/>
      <point x="143" y="133"/>
      <point x="182" y="62"/>
      <point x="253" y="62" type="curve" smooth="yes"/>
      <point x="300" y="62"/>
      <point x="328" y="92"/>
      <point x="350" y="160" type="curve"/>
    </contour>
  </outline>
</glyph>
<glyph name="e" format="1">
  <advance width="481"/>
  <unicode hex="0065"/>
  <outline>
    <contour>
      <point x="443" y="55" type="line"/>
      <point x="386" y="14"/>
      <point x="333" y="-9"/>
      <point x="255" y="-9" type="curve" smooth="yes"/>
      <point x="122" y="-9"/>
      <point x="36" y="87"/>
      <point x="36" y="256" type="curve" smooth="yes"/>
      <point x="36" y="269" type="line" smooth="yes"/>
      <point x="36" y="428"/>
      <point x="120" y="534"/>
      <point x="243" y="534" type="curve" smooth="yes"/>
      <point x="368" y="534"/>
      <point x="443" y="431"/>
      <point x="443" y="267" type="curve" smooth="yes"/>
      <point x="443" y="239" type="line"/>
      <point x="137" y="239" type="line"/>
      <point x="141" y="120"/>
      <point x="192" y="66"/>
      <point x="270" y="66" type="curve" smooth="yes"/>
      <point x="320" y="66"/>
      <point x="363" y="84"/>
      <point x="411" y="120" type="curve"/>
    </contour>
    <contour>
      <point x="342" y="289" type="line"/>
      <point x="337" y="412"/>
      <point x="306" y="469"/>
      <point x="243" y="469" type="curve" smooth="yes"/>
      <point x="178" y="469"/>
      <point x="141" y="406"/>
      <point x="137" y="289" type="curve"/>
    </contour>
  </outline>
</glyph>
<glyph name="p" format="1">
  <advance width="530"/>
  <unicode hex="0070"/>
  <outline>
    <contour>
      <point x="493" y="256" type="line" smooth="yes"/>
      <point x="493" y="84"/>
      <point x="417" y="-9"/>
      <point x="324" y="-9" type="curve" smooth="yes"/>
      <point x="254" y="-9"/>
      <point x="211" y="35"/>
      <point x="173" y="104" type="curve"/>
      <point x="168" y="104" type="line"/>
      <point x="168" y="-188" type="line"/>
      <point x="61" y="-188" type="line"/>
      <point x="61" y="510" type="line"/>
      <point x="168" y="533" type="line"/>
      <point x="168" y="419" type="line"/>
      <point x="173" y="419" type="line"/>
      <point x="214" y="489"/>
      <point x="255" y="533"/>
      <point x="325" y="533" type="curve" smooth="yes"/>
      <point x="424" y="533"/>
      <point x="493" y="442"/>
      <point x="493" y="270" type="curve" smooth="yes"/>
    </contour>
    <contour>
      <point x="387" y="261" type="curve" smooth="yes"/>
      <point x="387" y="406"/>
      <point x="338" y="462"/>
      <point x="282" y="462" type="curve" smooth="yes"/>
      <point x="215" y="462"/>
      <point x="166" y="378"/>
      <point x="166" y="262" type="curve" smooth="yes"/>
      <point x="166" y="146"/>
      <point x="215" y="63"/>
      <point x="282" y="63" type="curve" smooth="yes"/>
      <point x="340" y="63"/>
      <point x="387" y="122"/>
    </contour>
  </outline>
</glyph>
<glyph name="u" format="1">
  <advance width="517"/>
  <unicode hex="0075"/>
  <outline>
    <contour>
      <point x="456" y="14" type="line"/>
      <point x="348" y="-9" type="line"/>
      <point x="348" y="117" type="line"/>
      <point x="343" y="117" type="line"/>
      <point x="287" y="39"/>
      <point x="234" y="-6"/>
      <point x="165" y="-6" type="curve" smooth="yes"/>
      <point x="93" y="-6"/>
      <point x="56" y="41"/>
      <point x="56" y="120" type="curve" smooth="yes"/>
      <point x="56" y="524" type="line"/>
      <point x="163" y="524" type="line"/>
      <point x="163" y="144" type="line" smooth="yes"/>
      <point x="163" y="96"/>
      <point x="184" y="71"/>
      <point x="225" y="71" type="curve" smooth="yes"/>
      <point x="264" y="71"/>
      <point x="308" y="103"/>
      <point x="348" y="164" type="curve"/>
      <point x="348" y="524" type="line"/>
      <point x="456" y="524" type="line"/>
    </contour>
  </outline>
</glyph>
<glyph name="w" format="1">
  <advance width="787"/>
  <unicode hex="0077"/>
  <outline>
    <contour>
      <point x="765" y="524" type="line"/>
      <point x="610" y="-4" type="line"/>
      <point x="499" y="-4" type="line"/>
      <point x="394" y="394" type="line"/>
      <point x="289" y="-4" type="line"/>
      <point x="177" y="-4" type="line"/>
      <point x="22" y="524" type="line"/>
      <point x="133" y="524" type="line"/>
      <point x="237" y="112" type="line"/>
      <point x="344" y="524" type="line"/>
      <point x="448" y="524" type="line"/>
      <point x="555" y="112" type="line"/>
      <point x="660" y="524" type="line"/>
    </contour>
  </outline>
</glyph>
<glyph name="x" format="1">
  <advance width="503"/>
  <unicode hex="0078"/>
  <outline>
    <contour>
      <point x="481" y="0" type="line"/>
      <point x="365" y="0" type="line"/>
      <point x="248" y="193" type="line"/>
      <point x="129" y="0" type="line"/>
      <point x="23" y="0" type="line"/>
      <point x="196" y="263" type="line"/>
      <point x="28" y="524" type="line"/>
      <point x="144" y="524" type="line"/>
      <point x="255" y="339" type="line"/>
      <point x="369" y="524" type="line"/>
      <point x="475" y="524" type="line"/>
      <point x="307" y="271" type="line"/>
    </contour>
  </outline>
</glyph>
<glyph name="braceleft" format="1">
  <advance width="412"/>
  <unicode hex="007B"/>
  <outline>
    <contour>
      <point x="382" y="-80" type="line"/>
      <point x="271" y="-80" type="line" smooth="yes"/>
      <point x="178" y="-80"/>
      <point x="130" y="-36"/>
      <point x="130" y="45" type="curve" smooth="yes"/>
      <point x="130" y="90"/>
      <point x="150" y="154"/>
      <point x="150" y="197" type="curve" smooth="yes"/>
      <point x="150" y="268"/>
      <point x="94" y="295"/>
      <point x="19" y="295" type="curve"/>
      <point x="19" y="345" type="line"/>
      <point x="94" y="345"/>
      <point x="150" y="372"/>
      <point x="150" y="443" type="curve" smooth="yes"/>
      <point x="150" y="486"/>
      <point x="130" y="550"/>
      <point x="130" y="595" type="curve" smooth="yes"/>
      <point x="130" y="676"/>
      <point x="178" y="720"/>
      <point x="271" y="720" type="curve" smooth="yes"/>
      <point x="382" y="720" type="line"/>
      <point x="382" y="670" type="line"/>
      <point x="312" y="670" type="line" smooth="yes"/>
      <point x="257" y="670"/>
      <point x="232" y="639"/>
      <point x="232" y="595" type="curve" smooth="yes"/>
      <point x="232" y="556"/>
      <point x="252" y="496"/>
      <point x="252" y="447" type="curve" smooth="yes"/>
      <point x="252" y="370"/>
      <point x="203" y="343"/>
      <point x="147" y="324" type="curve"/>
      <point x="147" y="316" type="line"/>
      <point x="203" y="297"/>
      <point x="252" y="270"/>
      <point x="252" y="193" type="curve" smooth="yes"/>
      <point x="252" y="144"/>
      <point x="232" y="84"/>
      <point x="232" y="45" type="curve" smooth="yes"/>
      <point x="232" y="1"/>
      <point x="257" y="-30"/>
      <point x="312" y="-30" type="curve" smooth="yes"/>
      <point x="382" y="-30" type="line"/>
    </contour>
  </outline>
</glyph>
<glyph name="bar" format="1">
  <advance width="248"/>
  <unicode hex="007C"/>
  <outline>
    <contour>
      <point x="169" y="-188" type="line"/>
      <point x="79" y="-188" type="line"/>
      <point x="79" y="762" type="line"/>
      <point x="169" y="762" type="line"/>
    </contour>
  </outline>
</glyph>
<glyph name="braceright" format="1">
  <advance width="412"/>
  <unicode hex="007D"/>
  <outline>
    <contour>
      <point x="393" y="295" type="line"/>
      <point x="318" y="295"/>
      <point x="262" y="268"/>
      <point x="262" y="197" type="curve" smooth="yes"/>
      <point x="262" y="154"/>
      <point x="282" y="90"/>
      <point x="282" y="45" type="curve" smooth="yes"/>
      <point x="282" y="-36"/>
      <point x="234" y="-80"/>
      <point x="140" y="-80" type="curve" smooth="yes"/>
      <point x="29" y="-80" type="line"/>
      <point x="29" y="-30" type="line"/>
      <point x="100" y="-30" type="line" smooth="yes"/>
      <point x="154" y="-30"/>
      <point x="180" y="1"/>
      <point x="180" y="45" type="curve" smooth="yes"/>
      <point x="180" y="84"/>
      <point x="160" y="144"/>
      <point x="160" y="193" type="curve" smooth="yes"/>
      <point x="160" y="270"/>
      <point x="209" y="297"/>
      <point x="265" y="316" type="curve"/>
      <point x="265" y="324" type="line"/>
      <point x="209" y="343"/>
      <point x="160" y="370"/>
      <point x="160" y="447" type="curve" smooth="yes"/>
      <point x="160" y="496"/>
      <point x="180" y="556"/>
      <point x="180" y="595" type="curve" smooth="yes"/>
      <point x="180" y="639"/>
      <point x="154" y="670"/>
      <point x="100" y="670" type="curve" smooth="yes"/>
      <point x="29" y="670" type="line"/>
      <point x="29" y="720" type="line"/>
      <point x="140" y="720" type="line" smooth="yes"/>
      <point x="234" y="720"/>
      <point x="282" y="676"/>
      <point x="282" y="595" type="curve" smooth="yes"/>
      <point x="282" y="550"/>
      <point x="262" y="486"/>
      <point x="262" y="443" type="curve" smooth="yes"/>
      <point x="262" y="372"/>
      <point x="318" y="345"/>
      <point x="393" y="345" type="curve"/>
    </contour>
  </outline>
</glyph>
<glyph name="asciitilde" format="1">
  <advance width="399"/>
  <unicode hex="007E"/>
  <outline>
    <contour>
      <point x="362" y="348" type="line"/>
      <point x="364" y="260"/>
      <point x="336" y="220"/>
      <point x="276" y="220" type="curve" smooth="yes"/>
      <point x="216" y="220"/>
      <point x="167" y="274"/>
      <point x="130" y="274" type="curve" smooth="yes"/>
      <point x="103" y="274"/>
      <point x="92" y="259"/>
      <point x="92" y="222" type="curve"/>
      <point x="37" y="222" type="line"/>
      <point x="34" y="310"/>
      <point x="63" y="350"/>
      <point x="123" y="350" type="curve" smooth="yes"/>
      <point x="183" y="350"/>
      <point x="232" y="295"/>
      <point x="269" y="295" type="curve" smooth="yes"/>
      <point x="295" y="295"/>
      <point x="307" y="310"/>
      <point x="307" y="348" type="curve"/>
    </contour>
  </outline>
</glyph>
<glyph name="exclamdown" format="1">
  <advance width="261"/>
  <unicode hex="00A1"/>
  <outline>
    <contour>
      <point x="195" y="662" type="curve" smooth="yes"/>
      <point x="195" y="625"/>
      <point x="168" y="597"/>
      <point x="131" y="597" type="curve" smooth="yes"/>
      <point x="94" y="597"/>
      <point x="66" y="625"/>
      <point x="66" y="662" type="curve" smooth="yes"/>
      <point x="66" y="699"/>
      <point x="94" y="727"/>
      <point x="131" y="727" type="curve" smooth="yes"/>
      <point x="168" y="727"/>
      <point x="195" y="699"/>
    </contour>
    <contour>
      <point x="196" y="0" type="line"/>
      <point x="65" y="0" type="line"/>
      <point x="100" y="499" type="line"/>
      <point x="161" y="499" type="line"/>
    </contour>
  </outline>
</glyph>
<glyph name="dieresis" format="1">
  <advance width="500"/>
  <unicode hex="00A8"/>
  <outline>
    <contour>
      <point x="392" y="592" type="line"/>
      <point x="297" y="592" type="line"/>
      <point x="297" y="698" type="line"/>
      <point x="392" y="698" type="line"/>
    </contour>
    <contour>
      <point x="203" y="592" type="line"/>
      <point x="108" y="592" type="line"/>
      <point x="108" y="698" type="line"/>
      <point x="203" y="698" type="line"/>
    </contour>
  </outline>
</glyph>
<glyph name="ordfeminine" format="1">
  <advance width="390"/>
  <unicode hex="00AA"/>
  <outline>
    <contour>
      <point x="353" y="367" type="line"/>
      <point x="290" y="366"/>
      <point x="258" y="386"/>
      <point x="249" y="423" type="curve"/>
      <point x="217" y="385"/>
      <point x="182" y="366"/>
      <point x="142" y="366" type="curve" smooth="yes"/>
      <point x="89" y="366"/>
      <point x="45" y="398"/>
      <point x="45" y="460" type="curve" smooth="yes"/>
      <point x="45" y="531"/>
      <point x="111" y="577"/>
      <point x="247" y="579" type="curve"/>
      <point x="247" y="613" type="line" smooth="yes"/>
      <point x="247" y="652"/>
      <point x="230" y="671"/>
      <point x="196" y="671" type="curve" smooth="yes"/>
      <point x="164" y="671"/>
      <point x="132" y="661"/>
      <point x="90" y="637" type="curve"/>
      <point x="69" y="685" type="line"/>
      <point x="114" y="709"/>
      <point x="155" y="725"/>
      <point x="208" y="725" type="curve" smooth="yes"/>
      <point x="285" y="725"/>
      <point x="318" y="692"/>
      <point x="318" y="615" type="curve" smooth="yes"/>
      <point x="318" y="442" type="line" smooth="yes"/>
      <point x="318" y="417"/>
      <point x="326" y="404"/>
      <point x="353" y="401" type="curve"/>
    </contour>
    <contour>
      <point x="342" y="251" type="line"/>
      <point x="48" y="251" type="line"/>
      <point x="48" y="297" type="line"/>
      <point x="342" y="297" type="line"/>
    </contour>
    <contour>
      <point x="247" y="457" type="curve"/>
      <point x="247" y="546" type="line"/>
      <point x="151" y="544"/>
      <point x="116" y="510"/>
      <point x="116" y="468" type="curve" smooth="yes"/>
      <point x="116" y="434"/>
      <point x="137" y="414"/>
      <point x="169" y="414" type="curve" smooth="yes"/>
      <point x="198" y="414"/>
      <point x="224" y="429"/>
    </contour>
  </outline>
</glyph>
<glyph name="degree" format="1">
  <advance width="400"/>
  <unicode hex="00B0"/>
  <outline>
    <contour>
      <point x="353" y="573" type="curve" smooth="yes"/>
      <point x="353" y="485"/>
      <point x="288" y="422"/>
      <point x="200" y="422" type="curve" smooth="yes"/>
      <point x="112" y="422"/>
      <point x="47" y="485"/>
      <point x="47" y="573" type="curve" smooth="yes"/>
      <point x="47" y="661"/>
      <point x="112" y="724"/>
      <point x="200" y="724" type="curve" smooth="yes"/>
      <point x="288" y="724"/>
      <point x="353" y="661"/>
    </contour>
    <contour>
      <point x="293" y="573" type="curve" smooth="yes"/>
      <point x="293" y="630"/>
      <point x="255" y="671"/>
      <point x="200" y="671" type="curve" smooth="yes"/>
      <point x="145" y="671"/>
      <point x="107" y="630"/>
      <point x="107" y="573" type="curve" smooth="yes"/>
      <point x="107" y="516"/>
      <point x="145" y="474"/>
      <point x="200" y="474" type="curve" smooth="yes"/>
      <point x="255" y="474"/>
      <point x="293" y="516"/>
    </contour>
  </outline>
</glyph>
<glyph name="acute" format="1">
  <advance width="500"/>
  <unicode hex="00B4"/>
  <outline>
    <contour>
      <point x="370" y="743" type="line"/>
      <point x="227" y="592" type="line"/>
      <point x="156" y="592" type="line"/>
      <point x="241" y="743" type="line"/>
    </contour>
  </outline>
</glyph>
<glyph name="cedilla" format="1">
  <advance width="500"/>
  <unicode hex="00B8"/>
  <outline>
    <contour>
      <point x="385" y="-100" type="curve" smooth="yes"/>
      <point x="385" y="-164"/>
      <point x="310" y="-194"/>
      <point x="149" y="-191" type="curve"/>
      <point x="149" y="-164" type="line"/>
      <point x="272" y="-162"/>
      <point x="313" y="-143"/>
      <point x="313" y="-114" type="curve" smooth="yes"/>
      <point x="313" y="-97"/>
      <point x="300" y="-88"/>
      <point x="276" y="-88" type="curve" smooth="yes"/>
      <point x="256" y="-88"/>
      <point x="239" y="-92"/>
      <point x="221" y="-99" type="curve"/>
      <point x="194" y="-82" type="line"/>
      <point x="250" y="0" type="line"/>
      <point x="292" y="0" type="line"/>
      <point x="259" y="-50" type="line"/>
      <point x="272" y="-46"/>
      <point x="288" y="-43"/>
      <point x="307" y="-43" type="curve" smooth="yes"/>
      <point x="353" y="-43"/>
      <point x="385" y="-62"/>
    </contour>
  </outline>
</glyph>
<glyph name="guillemotright" format="1">
  <advance width="481"/>
  <unicode hex="00BB"/>
  <outline>
    <contour>
      <point x="458" y="262" type="line"/>
      <point x="299" y="74" type="line"/>
      <point x="236" y="74" type="line"/>
      <point x="345" y="262" type="line"/>
      <point x="236" y="450" type="line"/>
      <point x="299" y="450" type="line"/>
    </contour>
    <contour>
      <point x="253" y="262" type="line"/>
      <point x="94" y="74" type="line"/>
      <point x="31" y="74" type="line"/>
      <point x="140" y="262" type="line"/>
      <point x="31" y="450" type="line"/>
      <point x="94" y="450" type="line"/>
    </contour>
  </outline>
</glyph>
<glyph name="AE" format="1">
  <advance width="937"/>
  <unicode hex="00C6"/>
  <outline>
    <contour>
      <point x="903" y="0" type="line"/>
      <point x="463" y="0" type="line"/>
      <point x="463" y="178" type="line"/>
      <point x="211" y="178" type="line"/>
      <point x="123" y="0" type="line"/>
      <point x="8" y="0" type="line"/>
      <point x="373" y="720" type="line"/>
      <point x="891" y="720" type="line"/>
      <point x="891" y="631" type="line"/>
      <point x="574" y="631" type="line"/>
      <point x="574" y="417" type="line"/>
      <point x="823" y="417" type="line"/>
      <point x="823" y="332" type="line"/>
      <point x="574" y="332" type="line"/>
      <point x="574" y="89" type="line"/>
      <point x="903" y="89" type="line"/>
    </contour>
    <contour>
      <point x="463" y="255" type="line"/>
      <point x="463" y="634" type="line"/>
      <point x="436" y="634" type="line"/>
      <point x="245" y="255" type="line"/>
    </contour>
  </outline>
</glyph>
<glyph name="Ccedilla" format="1">
  <advance width="594"/>
  <unicode hex="00C7"/>
  <outline>
    <contour>
      <point x="562" y="214" type="line"/>
      <point x="534" y="81"/>
      <point x="462" y="-4"/>
      <point x="331" y="-11" type="curve"/>
      <point x="306" y="-50" type="line"/>
      <point x="319" y="-46"/>
      <point x="335" y="-43"/>
      <point x="354" y="-43" type="curve" smooth="yes"/>
      <point x="400" y="-43"/>
      <point x="432" y="-62"/>
      <point x="432" y="-100" type="curve" smooth="yes"/>
      <point x="432" y="-164"/>
      <point x="357" y="-194"/>
      <point x="196" y="-191" type="curve"/>
      <point x="196" y="-164" type="line"/>
      <point x="319" y="-162"/>
      <point x="360" y="-143"/>
      <point x="360" y="-114" type="curve" smooth="yes"/>
      <point x="360" y="-97"/>
      <point x="347" y="-88"/>
      <point x="323" y="-88" type="curve" smooth="yes"/>
      <point x="303" y="-88"/>
      <point x="286" y="-92"/>
      <point x="268" y="-99" type="curve"/>
      <point x="241" y="-82" type="line"/>
      <point x="290" y="-11" type="line"/>
      <point x="140" y="1"/>
      <point x="46" y="132"/>
      <point x="46" y="344" type="curve" smooth="yes"/>
      <point x="46" y="374" type="line" smooth="yes"/>
      <point x="46" y="598"/>
      <point x="149" y="732"/>
      <point x="315" y="732" type="curve" smooth="yes"/>
      <point x="459" y="732"/>
      <point x="532" y="644"/>
      <point x="558" y="514" type="curve"/>
      <point x="450" y="487" type="line"/>
      <point x="429" y="592"/>
      <point x="390" y="644"/>
      <point x="315" y="644" type="curve" smooth="yes"/>
      <point x="211" y="644"/>
      <point x="164" y="538"/>
      <point x="164" y="387" type="curve" smooth="yes"/>
      <point x="164" y="334" type="line" smooth="yes"/>
      <point x="164" y="183"/>
      <point x="211" y="76"/>
      <point x="316" y="76" type="curve" smooth="yes"/>
      <point x="395" y="76"/>
      <point x="436" y="135"/>
      <point x="457" y="240" type="curve"/>
    </contour>
  </outline>
</glyph>
<glyph name="multiply" format="1">
  <advance width="600"/>
  <unicode hex="00D7"/>
  <outline>
    <contour>
      <point x="541" y="179" type="line"/>
      <point x="476" y="114" type="line"/>
      <point x="300" y="294" type="line"/>
      <point x="124" y="114" type="line"/>
      <point x="59" y="179" type="line"/>
      <point x="239" y="355" type="line"/>
      <point x="59" y="531" type="line"/>
      <point x="124" y="596" type="line"/>
      <point x="300" y="416" type="line"/>
      <point x="476" y="596" type="line"/>
      <point x="541" y="531" type="line"/>
      <point x="361" y="355" type="line"/>
    </contour>
  </outline>
</glyph>
<glyph name="Thorn" format="1">
  <advance width="581"/>
  <unicode hex="00DE"/>
  <outline>
    <contour>
      <point x="550" y="374" type="curve" smooth="yes"/>
      <point x="550" y="231"/>
      <point x="458" y="156"/>
      <point x="295" y="156" type="curve" smooth="yes"/>
      <point x="186" y="156" type="line"/>
      <point x="186" y="0" type="line"/>
      <point x="72" y="0" type="line"/>
      <point x="72" y="720" type="line"/>
      <point x="186" y="720" type="line"/>
      <point x="186" y="584" type="line"/>
      <point x="302" y="584" type="line" smooth="yes"/>
      <point x="456" y="584"/>
      <point x="550" y="513"/>
    </contour>
    <contour>
      <point x="436" y="372" type="curve" smooth="yes"/>
      <point x="436" y="456"/>
      <point x="386" y="502"/>
      <point x="290" y="502" type="curve" smooth="yes"/>
      <point x="182" y="502" type="line"/>
      <point x="182" y="240" type="line"/>
      <point x="293" y="240" type="line" smooth="yes"/>
      <point x="385" y="240"/>
      <point x="436" y="285"/>
    </contour>
  </outline>
</glyph>
<glyph name="germandbls" format="1">
  <advance width="593"/>
  <unicode hex="00DF"/>
  <outline>
    <contour>
      <point x="558" y="188" type="curve" smooth="yes"/>
      <point x="558" y="64"/>
      <point x="481" y="-8"/>
      <point x="363" y="-8" type="curve" smooth="yes"/>
      <point x="303" y="-8"/>
      <point x="267" y="7"/>
      <point x="237" y="28" type="curve"/>
      <point x="257" y="96" type="line"/>
      <point x="282" y="76"/>
      <point x="305" y="65"/>
      <point x="346" y="65" type="curve" smooth="yes"/>
      <point x="406" y="65"/>
      <point x="453" y="110"/>
      <point x="453" y="188" type="curve" smooth="yes"/>
      <point x="453" y="295"/>
      <point x="379" y="361"/>
      <point x="256" y="378" type="curve"/>
      <point x="256" y="445" type="line"/>
      <point x="349" y="451"/>
      <point x="393" y="507"/>
      <point x="393" y="577" type="curve" smooth="yes"/>
      <point x="393" y="640"/>
      <point x="354" y="686"/>
      <point x="282" y="686" type="curve" smooth="yes"/>
      <point x="207" y="686"/>
      <point x="168" y="633"/>
      <point x="168" y="543" type="curve" smooth="yes"/>
      <point x="168" y="0" type="line"/>
      <point x="61" y="0" type="line"/>
      <point x="61" y="531" type="line" smooth="yes"/>
      <point x="61" y="678"/>
      <point x="147" y="759"/>
      <point x="285" y="759" type="curve" smooth="yes"/>
      <point x="421" y="759"/>
      <point x="497" y="685"/>
      <point x="497" y="584" type="curve" smooth="yes"/>
      <point x="497" y="495"/>
      <point x="445" y="443"/>
      <point x="379" y="419" type="curve"/>
      <point x="379" y="412" type="line"/>
      <point x="472" y="385"/>
      <point x="558" y="315"/>
    </contour>
  </outline>
</glyph>
<glyph name="ae" format="1">
  <advance width="773"/>
  <unicode hex="00E6"/>
  <outline>
    <contour>
      <point x="735" y="55" type="line"/>
      <point x="677" y="14"/>
      <point x="625" y="-9"/>
      <point x="547" y="-9" type="curve" smooth="yes"/>
      <point x="468" y="-9"/>
      <point x="406" y="27"/>
      <point x="368" y="91" type="curve"/>
      <point x="313" y="30"/>
      <point x="250" y="-7"/>
      <point x="177" y="-7" type="curve" smooth="yes"/>
      <point x="89" y="-7"/>
      <point x="27" y="42"/>
      <point x="27" y="132" type="curve" smooth="yes"/>
      <point x="27" y="239"/>
      <point x="127" y="305"/>
      <point x="328" y="310" type="curve"/>
      <point x="328" y="370" type="line" smooth="yes"/>
      <point x="328" y="425"/>
      <point x="300" y="455"/>
      <point x="247" y="455" type="curve" smooth="yes"/>
      <point x="204" y="455"/>
      <point x="157" y="439"/>
      <point x="94" y="404" type="curve"/>
      <point x="64" y="471" type="line"/>
      <point x="130" y="506"/>
      <point x="187" y="530"/>
      <point x="259" y="530" type="curve" smooth="yes"/>
      <point x="337" y="530"/>
      <point x="374" y="493"/>
      <point x="387" y="435" type="curve"/>
      <point x="394" y="435" type="line"/>
      <point x="423" y="497"/>
      <point x="470" y="534"/>
      <point x="538" y="534" type="curve" smooth="yes"/>
      <point x="662" y="534"/>
      <point x="735" y="431"/>
      <point x="735" y="267" type="curve" smooth="yes"/>
      <point x="735" y="239" type="line"/>
      <point x="429" y="239" type="line"/>
      <point x="432" y="120"/>
      <point x="483" y="66"/>
      <point x="562" y="66" type="curve" smooth="yes"/>
      <point x="612" y="66"/>
      <point x="655" y="84"/>
      <point x="703" y="120" type="curve"/>
    </contour>
    <contour>
      <point x="634" y="289" type="line"/>
      <point x="629" y="412"/>
      <point x="597" y="469"/>
      <point x="534" y="469" type="curve" smooth="yes"/>
      <point x="470" y="469"/>
      <point x="433" y="406"/>
      <point x="429" y="289" type="curve"/>
    </contour>
    <contour>
      <point x="348" y="131" type="curve"/>
      <point x="335" y="166"/>
      <point x="328" y="206"/>
      <point x="328" y="251" type="curve" smooth="yes"/>
      <point x="328" y="264" type="line"/>
      <point x="183" y="261"/>
      <point x="126" y="209"/>
      <point x="126" y="145" type="curve" smooth="yes"/>
      <point x="126" y="89"/>
      <point x="161" y="59"/>
      <point x="214" y="59" type="curve" smooth="yes"/>
      <point x="257" y="59"/>
      <point x="306" y="84"/>
    </contour>
  </outline>
</glyph>
<glyph name="eth" format="1">
  <advance width="512"/>
  <unicode hex="00F0"/>
  <outline>
    <contour>
      <point x="473" y="267" type="line" smooth="yes"/>
      <point x="473" y="95"/>
      <point x="392" y="-10"/>
      <point x="255" y="-10" type="curve" smooth="yes"/>
      <point x="119" y="-10"/>
      <point x="36" y="95"/>
      <point x="36" y="254" type="curve" smooth="yes"/>
      <point x="36" y="269" type="line" smooth="yes"/>
      <point x="36" y="428"/>
      <point x="111" y="530"/>
      <point x="230" y="530" type="curve" smooth="yes"/>
      <point x="299" y="530"/>
      <point x="343" y="487"/>
      <point x="374" y="426" type="curve"/>
      <point x="380" y="426" type="line"/>
      <point x="370" y="508"/>
      <point x="329" y="581"/>
      <point x="278" y="643" type="curve"/>
      <point x="160" y="584" type="line"/>
      <point x="160" y="632" type="line"/>
      <point x="245" y="676" type="line"/>
      <point x="225" y="697"/>
      <point x="203" y="717"/>
      <point x="179" y="734" type="curve"/>
      <point x="267" y="762" type="line"/>
      <point x="285" y="745"/>
      <point x="304" y="727"/>
      <point x="321" y="707" type="curve"/>
      <point x="435" y="762" type="line"/>
      <point x="435" y="714" type="line"/>
      <point x="352" y="672" type="line"/>
      <point x="421" y="585"/>
      <point x="473" y="469"/>
      <point x="473" y="295" type="curve" smooth="yes"/>
    </contour>
    <contour>
      <point x="367" y="254" type="curve" smooth="yes"/>
      <point x="367" y="269" type="line" smooth="yes"/>
      <point x="367" y="396"/>
      <point x="328" y="466"/>
      <point x="255" y="466" type="curve" smooth="yes"/>
      <point x="182" y="466"/>
      <point x="143" y="396"/>
      <point x="143" y="270" type="curve" smooth="yes"/>
      <point x="143" y="255" type="line" smooth="yes"/>
      <point x="143" y="129"/>
      <point x="182" y="58"/>
      <point x="255" y="58" type="curve" smooth="yes"/>
      <point x="328" y="58"/>
      <point x="367" y="128"/>
    </contour>
  </outline>
</glyph>
<glyph name="oslash" format="1">
  <advance width="510"/>
  <unicode hex="00F8"/>
  <outline>
    <contour>
      <point x="473" y="256" type="line" smooth="yes"/>
      <point x="473" y="96"/>
      <point x="390" y="-10"/>
      <point x="255" y="-10" type="curve" smooth="yes"/>
      <point x="217" y="-10"/>
      <point x="185" y="-1"/>
      <point x="156" y="15" type="curve"/>
      <point x="101" y="-95" type="line"/>
      <point x="37" y="-95" type="line"/>
      <point x="111" y="43" type="line"/>
      <point x="63" y="90"/>
      <point x="36" y="163"/>
      <point x="36" y="254" type="curve" smooth="yes"/>
      <point x="36" y="269" type="line" smooth="yes"/>
      <point x="36" y="428"/>
      <point x="119" y="534"/>
      <point x="255" y="534" type="curve" smooth="yes"/>
      <point x="292" y="534"/>
      <point x="325" y="525"/>
      <point x="354" y="509" type="curve"/>
      <point x="409" y="619" type="line"/>
      <point x="473" y="619" type="line"/>
      <point x="398" y="480" type="line"/>
      <point x="447" y="434"/>
      <point x="473" y="361"/>
      <point x="473" y="270" type="curve" smooth="yes"/>
    </contour>
    <contour>
      <point x="322" y="443" type="line"/>
      <point x="304" y="461"/>
      <point x="281" y="470"/>
      <point x="255" y="470" type="curve" smooth="yes"/>
      <point x="181" y="470"/>
      <point x="136" y="400"/>
      <point x="136" y="270" type="curve" smooth="yes"/>
      <point x="136" y="255" type="line" smooth="yes"/>
      <point x="136" y="204"/>
      <point x="146" y="160"/>
      <point x="165" y="129" type="curve"/>
    </contour>
    <contour>
      <point x="374" y="254" type="curve" smooth="yes"/>
      <point x="374" y="269" type="line" smooth="yes"/>
      <point x="374" y="320"/>
      <point x="363" y="363"/>
      <point x="345" y="394" type="curve"/>
      <point x="187" y="81" type="line"/>
      <point x="206" y="63"/>
      <point x="229" y="54"/>
      <point x="255" y="54" type="curve" smooth="yes"/>
      <point x="329" y="54"/>
      <point x="374" y="124"/>
    </contour>
  </outline>
</glyph>
<glyph name="dotlessi" format="1">
  <advance width="242"/>
  <unicode hex="0131"/>
  <outline>
    <contour>
      <point x="175" y="0" type="line"/>
      <point x="68" y="0" type="line"/>
      <point x="68" y="524" type="line"/>
      <point x="175" y="524" type="line"/>
    </contour>
  </outline>
</glyph>
<glyph name="Lslash" format="1">
  <advance width="556"/>
  <unicode hex="0141"/>
  <outline>
    <contour>
      <point x="538" y="0" type="line"/>
      <point x="109" y="0" type="line"/>
      <point x="109" y="308" type="line"/>
      <point x="24" y="270" type="line"/>
      <point x="24" y="362" type="line"/>
      <point x="109" y="400" type="line"/>
      <point x="109" y="720" type="line"/>
      <point x="221" y="720" type="line"/>
      <point x="221" y="445" type="line"/>
      <point x="360" y="508" type="line"/>
      <point x="360" y="415" type="line"/>
      <point x="221" y="352" type="line"/>
      <point x="221" y="95" type="line"/>
      <point x="538" y="95" type="line"/>
    </contour>
  </outline>
</glyph>
<glyph name="lslash" format="1">
  <advance width="316"/>
  <unicode hex="0142"/>
  <outline>
    <contour>
      <point x="292" y="387" type="line"/>
      <point x="210" y="350" type="line"/>
      <point x="210" y="0" type="line"/>
      <point x="106" y="0" type="line"/>
      <point x="106" y="309" type="line"/>
      <point x="24" y="272" type="line"/>
      <point x="24" y="360" type="line"/>
      <point x="106" y="397" type="line"/>
      <point x="106" y="736" type="line"/>
      <point x="210" y="759" type="line"/>
      <point x="210" y="438" type="line"/>
      <point x="292" y="475" type="line"/>
    </contour>
  </outline>
</glyph>
<glyph name="OE" format="1">
  <advance width="895"/>
  <unicode hex="0152"/>
  <outline>
    <contour>
      <point x="861" y="0" type="line"/>
      <point x="360" y="0" type="line" smooth="yes"/>
      <point x="158" y="0"/>
      <point x="46" y="125"/>
      <point x="46" y="348" type="curve" smooth="yes"/>
      <point x="46" y="371" type="line" smooth="yes"/>
      <point x="46" y="595"/>
      <point x="161" y="720"/>
      <point x="363" y="720" type="curve" smooth="yes"/>
      <point x="849" y="720" type="line"/>
      <point x="849" y="632" type="line"/>
      <point x="538" y="632" type="line"/>
      <point x="538" y="417" type="line"/>
      <point x="781" y="417" type="line"/>
      <point x="781" y="332" type="line"/>
      <point x="538" y="332" type="line"/>
      <point x="538" y="88" type="line"/>
      <point x="861" y="88" type="line"/>
    </contour>
    <contour>
      <point x="427" y="86" type="line"/>
      <point x="427" y="634" type="line"/>
      <point x="364" y="634" type="line" smooth="yes"/>
      <point x="237" y="634"/>
      <point x="161" y="547"/>
      <point x="161" y="382" type="curve" smooth="yes"/>
      <point x="161" y="340" type="line" smooth="yes"/>
      <point x="161" y="173"/>
      <point x="234" y="86"/>
      <point x="367" y="86" type="curve" smooth="yes"/>
    </contour>
  </outline>
</glyph>
<glyph name="oe" format="1">
  <advance width="814"/>
  <unicode hex="0153"/>
  <outline>
    <contour>
      <point x="776" y="55" type="line"/>
      <point x="718" y="14"/>
      <point x="669" y="-9"/>
      <point x="596" y="-9" type="curve" smooth="yes"/>
      <point x="504" y="-9"/>
      <point x="452" y="35"/>
      <point x="425" y="115" type="curve"/>
      <point x="417" y="115" type="line"/>
      <point x="393" y="42"/>
      <point x="339" y="-10"/>
      <point x="251" y="-10" type="curve" smooth="yes"/>
      <point x="119" y="-10"/>
      <point x="36" y="95"/>
      <point x="36" y="254" type="curve" smooth="yes"/>
      <point x="36" y="269" type="line" smooth="yes"/>
      <point x="36" y="428"/>
      <point x="120" y="534"/>
      <point x="249" y="534" type="curve" smooth="yes"/>
      <point x="334" y="534"/>
      <point x="392" y="486"/>
      <point x="417" y="408" type="curve"/>
      <point x="425" y="408" type="line"/>
      <point x="449" y="486"/>
      <point x="504" y="534"/>
      <point x="582" y="534" type="curve" smooth="yes"/>
      <point x="701" y="534"/>
      <point x="776" y="431"/>
      <point x="776" y="267" type="curve" smooth="yes"/>
      <point x="776" y="239" type="line"/>
      <point x="470" y="239" type="line"/>
      <point x="474" y="120"/>
      <point x="525" y="66"/>
      <point x="603" y="66" type="curve" smooth="yes"/>
      <point x="653" y="66"/>
      <point x="696" y="84"/>
      <point x="744" y="120" type="curve"/>
    </contour>
    <contour>
      <point x="675" y="289" type="line"/>
      <point x="670" y="412"/>
      <point x="639" y="469"/>
      <point x="576" y="469" type="curve" smooth="yes"/>
      <point x="511" y="469"/>
      <point x="474" y="406"/>
      <point x="470" y="289" type="curve"/>
    </contour>
    <contour>
      <point x="367" y="254" type="curve" smooth="yes"/>
      <point x="367" y="269" type="line" smooth="yes"/>
      <point x="367" y="396"/>
      <point x="328" y="466"/>
      <point x="255" y="466" type="curve" smooth="yes"/>
      <point x="182" y="466"/>
      <point x="143" y="396"/>
      <point x="143" y="270" type="curve" smooth="yes"/>
      <point x="143" y="255" type="line" smooth="yes"/>
      <point x="143" y="129"/>
      <point x="182" y="58"/>
      <point x="255" y="58" type="curve" smooth="yes"/>
      <point x="328" y="58"/>
      <point x="367" y="128"/>
    </contour>
  </outline>
</glyph>
<glyph name="florin" format="1">
  <advance width="475"/>
  <unicode hex="0192"/>
  <outline>
    <contour>
      <point x="461" y="712" type="curve"/>
      <point x="447" y="636" type="line"/>
      <point x="420" y="645"/>
      <point x="398" y="648"/>
      <point x="365" y="648" type="curve" smooth="yes"/>
      <point x="322" y="648"/>
      <point x="293" y="623"/>
      <point x="284" y="572" type="curve" smooth="yes"/>
      <point x="265" y="465" type="line"/>
      <point x="392" y="465" type="line"/>
      <point x="379" y="388" type="line"/>
      <point x="252" y="388" type="line"/>
      <point x="173" y="-58" type="line" smooth="yes"/>
      <point x="156" y="-156"/>
      <point x="99" y="-190"/>
      <point x="18" y="-190" type="curve" smooth="yes"/>
      <point x="-18" y="-190"/>
      <point x="-47" y="-185"/>
      <point x="-69" y="-180" type="curve"/>
      <point x="-56" y="-107" type="line"/>
      <point x="-39" y="-111"/>
      <point x="-20" y="-114"/>
      <point x="0" y="-114" type="curve" smooth="yes"/>
      <point x="35" y="-114"/>
      <point x="60" y="-94"/>
      <point x="68" y="-49" type="curve" smooth="yes"/>
      <point x="146" y="388" type="line"/>
      <point x="46" y="388" type="line"/>
      <point x="59" y="465" type="line"/>
      <point x="159" y="465" type="line"/>
      <point x="179" y="581" type="line" smooth="yes"/>
      <point x="197" y="685"/>
      <point x="257" y="726"/>
      <point x="348" y="726" type="curve" smooth="yes"/>
      <point x="395" y="726"/>
      <point x="431" y="720"/>
    </contour>
  </outline>
</glyph>
<glyph name="caron" format="1">
  <advance width="500"/>
  <unicode hex="02C7"/>
  <outline>
    <contour>
      <point x="411" y="754" type="line"/>
      <point x="292" y="592" type="line"/>
      <point x="208" y="592" type="line"/>
      <point x="89" y="754" type="line"/>
      <point x="144" y="754" type="line"/>
      <point x="251" y="661" type="line"/>
      <point x="358" y="754" type="line"/>
    </contour>
  </outline>
</glyph>
<glyph name="breve" format="1">
  <advance width="500"/>
  <unicode hex="02D8"/>
  <outline>
    <contour>
      <point x="403" y="754" type="line"/>
      <point x="399" y="651"/>
      <point x="349" y="589"/>
      <point x="250" y="589" type="curve" smooth="yes"/>
      <point x="151" y="589"/>
      <point x="101" y="651"/>
      <point x="97" y="754" type="curve"/>
      <point x="146" y="754" type="line"/>
      <point x="155" y="688"/>
      <point x="187" y="655"/>
      <point x="250" y="655" type="curve" smooth="yes"/>
      <point x="313" y="655"/>
      <point x="345" y="688"/>
      <point x="354" y="754" type="curve"/>
    </contour>
  </outline>
</glyph>
<glyph name="tilde" format="1">
  <advance width="500"/>
  <unicode hex="02DC"/>
  <outline>
    <contour>
      <point x="412" y="720" type="line"/>
      <point x="415" y="632"/>
      <point x="387" y="592"/>
      <point x="326" y="592" type="curve" smooth="yes"/>
      <point x="267" y="592"/>
      <point x="218" y="646"/>
      <point x="180" y="646" type="curve" smooth="yes"/>
      <point x="154" y="646"/>
      <point x="143" y="631"/>
      <point x="142" y="594" type="curve"/>
      <point x="88" y="594" type="line"/>
      <point x="85" y="682"/>
      <point x="113" y="722"/>
      <point x="174" y="722" type="curve" smooth="yes"/>
      <point x="233" y="722"/>
      <point x="282" y="667"/>
      <point x="320" y="667" type="curve" smooth="yes"/>
      <point x="346" y="667"/>
      <point x="357" y="682"/>
      <point x="358" y="720" type="curve"/>
    </contour>
  </outline>
</glyph>
<glyph name="endash" format="1">
  <advance width="500"/>
  <unicode hex="2013"/>
  <outline>
    <contour>
      <point x="460" y="239" type="line"/>
      <point x="40" y="239" type="line"/>
      <point x="40" y="329" type="line"/>
      <point x="460" y="329" type="line"/>
    </contour>
  </outline>
</glyph>
<glyph name="quoteright" format="1">
  <advance width="210"/>
  <unicode hex="2019"/>
  <unicode hex="02BC"/>
  <outline>
    <contour>
      <point x="185" y="720" type="line"/>
      <point x="98" y="473" type="line"/>
      <point x="37" y="473" type="line"/>
      <point x="67" y="720" type="line"/>
    </contour>
  </outline>
</glyph>
<glyph name="quotedblright" format="1">
  <advance width="386"/>
  <unicode hex="201D"/>
  <outline>
    <contour>
      <point x="361" y="720" type="line"/>
      <point x="274" y="473" type="line"/>
      <point x="215" y="473" type="line"/>
      <point x="245" y="720" type="line"/>
    </contour>
    <contour>
      <point x="183" y="720" type="line"/>
      <point x="96" y="473" type="line"/>
      <point x="37" y="473" type="line"/>
      <point x="67" y="720" type="line"/>
    </contour>
  </outline>
</glyph>
<glyph name="quotedblbase" format="1">
  <advance width="386"/>
  <unicode hex="201E"/>
  <outline>
    <contour>
      <point x="353" y="130" type="line"/>
      <point x="267" y="-117" type="line"/>
      <point x="207" y="-117" type="line"/>
      <point x="237" y="130" type="line"/>
    </contour>
    <contour>
      <point x="175" y="130" type="line"/>
      <point x="89" y="-117" type="line"/>
      <point x="29" y="-117" type="line"/>
      <point x="59" y="130" type="line"/>
    </contour>
  </outline>
</glyph>
<glyph name="dagger" format="1">
  <advance width="456"/>
  <unicode hex="2020"/>
  <outline>
    <contour>
      <point x="427" y="451" type="line"/>
      <point x="259" y="477" type="line"/>
      <point x="286" y="343" type="line"/>
      <point x="248" y="0" type="line"/>
      <point x="208" y="0" type="line"/>
      <point x="170" y="343" type="line"/>
      <point x="196" y="477" type="line"/>
      <point x="28" y="451" type="line"/>
      <point x="28" y="538" type="line"/>
      <point x="196" y="511" type="line"/>
      <point x="170" y="720" type="line"/>
      <point x="286" y="720" type="line"/>
      <point x="259" y="511" type="line"/>
      <point x="427" y="538" type="line"/>
    </contour>
  </outline>
</glyph>
<glyph name="guilsinglleft" format="1">
  <advance width="276"/>
  <unicode hex="2039"/>
  <outline>
    <contour>
      <point x="245" y="74" type="line"/>
      <point x="182" y="74" type="line"/>
      <point x="23" y="262" type="line"/>
      <point x="182" y="450" type="line"/>
      <point x="245" y="450" type="line"/>
      <point x="136" y="262" type="line"/>
    </contour>
  </outline>
</glyph>
<glyph name="fraction" format="1">
  <advance width="385"/>
  <unicode hex="2044"/>
  <outline>
    <contour>
      <point x="432" y="735" type="line"/>
      <point x="52" y="-15" type="line"/>
      <point x="-48" y="-15" type="line"/>
      <point x="332" y="735" type="line"/>
    </contour>
  </outline>
</glyph>
<glyph name="minus" format="1">
  <advance width="600"/>
  <unicode hex="2212"/>
  <outline>
    <contour>
      <point x="558" y="307" type="line"/>
      <point x="42" y="307" type="line"/>
      <point x="42" y="403" type="line"/>
      <point x="558" y="403" type="line"/>
    </contour>
  </outline>
</glyph>
<glyph name="apple" format="1">
  <advance width="500"/>
  <unicode hex="F8FF"/>
  <outline>
    <contour>
      <point x="467" y="190" type="line"/>
      <point x="434" y="91" type="line"/>
      <point x="270" y="180" type="line"/>
      <point x="303" y="0" type="line"/>
      <point x="197" y="0" type="line"/>
      <point x="230" y="180" type="line"/>
      <point x="66" y="91" type="line"/>
      <point x="33" y="190" type="line"/>
      <point x="216" y="216" type="line"/>
      <point x="73" y="357" type="line"/>
      <point x="73" y="363" type="line"/>
      <point x="216" y="504" type="line"/>
      <point x="33" y="530" type="line"/>
      <point x="66" y="629" type="line"/>
      <point x="230" y="540" type="line"/>
      <point x="197" y="720" type="line"/>
      <point x="303" y="720" type="line"/>
      <point x="270" y="540" type="line"/>
      <point x="434" y="629" type="line"/>
      <point x="467" y="530" type="line"/>
      <point x="284" y="504" type="line"/>
      <point x="427" y="363" type="line"/>
      <point x="427" y="357" type="line"/>
      <point x="284" y="216" type="line"/>
    </contour>
    <contour>
      <point x="330" y="360" type="line"/>
      <point x="250" y="491" type="line"/>
      <point x="170" y="360" type="line"/>
      <point x="250" y="229" type="line"/>
    </contour>
  </outline>
</glyph>
<glyph name="fi" format="1">
  <advance width="598"/>
  <unicode hex="FB01"/>
  <outline>
    <contour>
      <point x="537" y="624" type="line"/>
      <point x="416" y="624" type="line"/>
      <point x="416" y="724" type="line"/>
      <point x="537" y="724" type="line"/>
    </contour>
    <contour>
      <point x="530" y="0" type="line"/>
      <point x="423" y="0" type="line"/>
      <point x="423" y="524" type="line"/>
      <point x="530" y="524" type="line"/>
    </contour>
    <contour>
      <point x="365" y="670" type="line"/>
      <point x="344" y="679"/>
      <point x="322" y="685"/>
      <point x="289" y="685" type="curve" smooth="yes"/>
      <point x="244" y="685"/>
      <point x="220" y="661"/>
      <point x="220" y="607" type="curve" smooth="yes"/>
      <point x="220" y="521" type="line"/>
      <point x="348" y="521" type="line"/>
      <point x="348" y="447" type="line"/>
      <point x="220" y="447" type="line"/>
      <point x="220" y="0" type="line"/>
      <point x="114" y="0" type="line"/>
      <point x="114" y="447" type="line"/>
      <point x="15" y="447" type="line"/>
      <point x="15" y="521" type="line"/>
      <point x="114" y="521" type="line"/>
      <point x="114" y="604" type="line" smooth="yes"/>
      <point x="114" y="707"/>
      <point x="171" y="759"/>
      <point x="268" y="759" type="curve" smooth="yes"/>
      <point x="312" y="759"/>
      <point x="339" y="754"/>
      <point x="365" y="747" type="curve"/>
    </contour>
  </outline>
</glyph>
<glyph name="I.salt" format="1">
  <advance width="271"/>
  <outline>
    <contour>
      <point x="193" y="0" type="line"/>
      <point x="78" y="0" type="line"/>
      <point x="78" y="720" type="line"/>
      <point x="193" y="720" type="line"/>
    </contour>
  </outline>
</glyph>
<glyph name="macron" format="1">
  <advance width="500"/>
  <outline>
    <contour>
      <point x="394" y="627" type="line"/>
      <point x="106" y="627" type="line"/>
      <point x="106" y="698" type="line"/>
      <point x="394" y="698" type="line"/>
    </contour>
  </outline>
</glyph>
<glyph name="registered.big" format="1">
  <advance width="828"/>
  <outline>
    <contour>
      <point x="786" y="360" type="curve" smooth="yes"/>
      <point x="786" y="149"/>
      <point x="625" y="-12"/>
      <point x="413" y="-12" type="curve" smooth="yes"/>
      <point x="202" y="-12"/>
      <point x="42" y="148"/>
      <point x="42" y="360" type="curve" smooth="yes"/>
      <point x="42" y="571"/>
      <point x="203" y="732"/>
      <point x="414" y="732" type="curve" smooth="yes"/>
      <point x="626" y="732"/>
      <point x="786" y="572"/>
    </contour>
    <contour>
      <point x="746" y="360" type="curve" smooth="yes"/>
      <point x="746" y="552"/>
      <point x="606" y="697"/>
      <point x="413" y="697" type="curve" smooth="yes"/>
      <point x="221" y="697"/>
      <point x="82" y="553"/>
      <point x="82" y="360" type="curve" smooth="yes"/>
      <point x="82" y="168"/>
      <point x="222" y="23"/>
      <point x="414" y="23" type="curve" smooth="yes"/>
      <point x="607" y="23"/>
      <point x="746" y="167"/>
    </contour>
    <contour>
      <point x="588" y="159" type="line"/>
      <point x="503" y="159" type="line"/>
      <point x="400" y="330" type="line"/>
      <point x="358" y="330" type="line"/>
      <point x="358" y="159" type="line"/>
      <point x="281" y="159" type="line"/>
      <point x="281" y="573" type="line"/>
      <point x="424" y="573" type="line" smooth="yes"/>
      <point x="513" y="573"/>
      <point x="569" y="533"/>
      <point x="569" y="453" type="curve" smooth="yes"/>
      <point x="569" y="392"/>
      <point x="534" y="354"/>
      <point x="477" y="340" type="curve"/>
    </contour>
    <contour>
      <point x="492" y="452" type="curve" smooth="yes"/>
      <point x="492" y="494"/>
      <point x="466" y="516"/>
      <point x="416" y="516" type="curve" smooth="yes"/>
      <point x="356" y="516" type="line"/>
      <point x="356" y="386" type="line"/>
      <point x="417" y="386" type="line" smooth="yes"/>
      <point x="466" y="386"/>
      <point x="492" y="407"/>
    </contour>
  </outline>
</glyph>
<glyph name="registered" format="1">
  <advance width="520"/>
  <outline>
    <contour>
      <point x="483" y="504" type="curve" smooth="yes"/>
      <point x="483" y="377"/>
      <point x="387" y="281"/>
      <point x="259" y="281" type="curve" smooth="yes"/>
      <point x="133" y="281"/>
      <point x="37" y="376"/>
      <point x="37" y="504" type="curve" smooth="yes"/>
      <point x="37" y="630"/>
      <point x="133" y="727"/>
      <point x="260" y="727" type="curve" smooth="yes"/>
      <point x="387" y="727"/>
      <point x="483" y="631"/>
    </contour>
    <contour>
      <point x="456" y="504" type="curve" smooth="yes"/>
      <point x="456" y="617"/>
      <point x="374" y="703"/>
      <point x="259" y="703" type="curve" smooth="yes"/>
      <point x="146" y="703"/>
      <point x="63" y="618"/>
      <point x="63" y="504" type="curve" smooth="yes"/>
      <point x="63" y="390"/>
      <point x="146" y="304"/>
      <point x="260" y="304" type="curve" smooth="yes"/>
      <point x="374" y="304"/>
      <point x="456" y="390"/>
    </contour>
    <contour>
      <point x="369" y="381" type="line"/>
      <point x="313" y="381" type="line"/>
      <point x="250" y="484" type="line"/>
      <point x="229" y="484" type="line"/>
      <point x="229" y="381" type="line"/>
      <point x="177" y="381" type="line"/>
      <point x="177" y="634" type="line"/>
      <point x="266" y="634" type="line" smooth="yes"/>
      <point x="321" y="634"/>
      <point x="356" y="609"/>
      <point x="356" y="559" type="curve" smooth="yes"/>
      <point x="356" y="523"/>
      <point x="335" y="499"/>
      <point x="302" y="490" type="curve"/>
    </contour>
    <contour>
      <point x="306" y="559" type="curve" smooth="yes"/>
      <point x="306" y="583"/>
      <point x="290" y="596"/>
      <point x="261" y="596" type="curve" smooth="yes"/>
      <point x="226" y="596" type="line"/>
      <point x="226" y="520" type="line"/>
      <point x="262" y="520" type="line" smooth="yes"/>
      <point x="290" y="520"/>
      <point x="306" y="533"/>
    </contour>
  </outline>
</glyph>
